<svg width="300" height="88" viewBox="0 0 300 88" fill="none" xmlns="http://www.w3.org/2000/svg">
  <defs>
    <linearGradient id="averoWarm" x1="16" y1="12" x2="72" y2="76" gradientUnits="userSpaceOnUse">
      <stop stop-color="#D77B47"/>
      <stop offset="1" stop-color="#8D3D18"/>
    </linearGradient>
  </defs>
  <rect x="8" y="8" width="64" height="64" rx="20" fill="url(#averoWarm)"/>
  <path d="M23 53.5L40 23H40.8L57 53.5H48.6L45.8 47.8H34L31.1 53.5H23ZM37.1 41.4H42.7L39.9 35.7L37.1 41.4Z" fill="#FFF8F2"/>
  <path d="M95.428 55L83.14 29.8H91.6L100.54 48.7L109.48 29.8H117.76L105.472 55H95.428Z" fill="#1E1A17"/>
  <path d="M129.822 55.54C122.262 55.54 116.214 49.924 116.214 42.4C116.214 34.876 121.866 29.26 129.318 29.26C136.806 29.26 142.35 34.624 142.35 42.004C142.35 43.156 142.242 44.128 142.062 44.992H124.422C125.214 48.16 127.95 49.816 131.154 49.816C133.638 49.816 135.906 48.844 137.49 47.26L141.666 51.4C138.93 54.064 135.042 55.54 129.822 55.54ZM124.494 39.916H134.358C133.782 36.928 131.622 35.02 129.21 35.02C126.69 35.02 124.998 36.388 124.494 39.916Z" fill="#1E1A17"/>
  <path d="M146.978 55V29.8H154.826V33.544C156.23 30.88 158.606 29.44 161.99 29.44H162.386V37.072H161.738C157.31 37.072 154.826 39.736 154.826 45.328V55H146.978Z" fill="#1E1A17"/>
  <path d="M176.069 55.54C168.401 55.54 162.209 49.924 162.209 42.4C162.209 34.912 168.473 29.26 176.141 29.26C183.809 29.26 190.073 34.84 190.073 42.328C190.073 49.852 183.737 55.54 176.069 55.54ZM176.141 48.7C179.489 48.7 182.225 45.94 182.225 42.4C182.225 38.932 179.597 36.1 176.069 36.1C172.577 36.1 170.057 38.86 170.057 42.328C170.057 45.904 172.649 48.7 176.141 48.7Z" fill="#1E1A17"/>
  <path d="M192.365 55V29.8H201.017L208.001 41.116L215.021 29.8H223.565V55H215.789V41.872L208.001 53.296H207.821L200.105 41.98V55H192.365Z" fill="#1E1A17"/>
  <path d="M239.1 55.54C231.54 55.54 225.492 49.924 225.492 42.4C225.492 34.876 231.144 29.26 238.596 29.26C246.084 29.26 251.628 34.624 251.628 42.004C251.628 43.156 251.52 44.128 251.34 44.992H233.7C234.492 48.16 237.228 49.816 240.432 49.816C242.916 49.816 245.184 48.844 246.768 47.26L250.944 51.4C248.208 54.064 244.32 55.54 239.1 55.54ZM233.772 39.916H243.636C243.06 36.928 240.9 35.02 238.488 35.02C235.968 35.02 234.276 36.388 233.772 39.916Z" fill="#1E1A17"/>
  <path d="M256.256 55V29.8H264.104V33.544C265.508 30.88 267.884 29.44 271.268 29.44H271.664V37.072H271.016C266.588 37.072 264.104 39.736 264.104 45.328V55H256.256Z" fill="#1E1A17"/>
</svg>
