<svg width="720" height="520" viewBox="0 0 720 520" fill="none" xmlns="http://www.w3.org/2000/svg">
  <defs>
    <linearGradient id="bg1" x1="90" y1="40" x2="620" y2="420" gradientUnits="userSpaceOnUse">
      <stop stop-color="#FFF6EC"/>
      <stop offset="1" stop-color="#F2DECB"/>
    </linearGradient>
  </defs>
  <rect width="720" height="520" rx="36" fill="url(#bg1)"/>
  <circle cx="578" cy="98" r="78" fill="#F6D8C7"/>
  <circle cx="138" cy="116" r="44" fill="#F3E6D7"/>
  <rect x="74" y="326" width="572" height="18" rx="9" fill="#5F4634"/>
  <rect x="112" y="214" width="182" height="112" rx="18" fill="#FDFBF7" stroke="#D9C2AA" stroke-width="3"/>
  <rect x="130" y="234" width="146" height="68" rx="12" fill="#E7B28E"/>
  <rect x="174" y="344" width="64" height="54" rx="10" fill="#7D5A41"/>
  <rect x="348" y="188" width="160" height="138" rx="22" fill="#FFFDF9" stroke="#D9C2AA" stroke-width="3"/>
  <rect x="372" y="212" width="112" height="78" rx="16" fill="#1E1A17"/>
  <rect x="392" y="232" width="72" height="38" rx="8" fill="#C86C3C"/>
  <path d="M402 258C418 241.333 434 241.333 450 258" stroke="#FFF2E9" stroke-width="5" stroke-linecap="round"/>
  <rect x="560" y="228" width="48" height="98" rx="16" fill="#C86C3C"/>
  <rect x="554" y="209" width="60" height="24" rx="12" fill="#F0C29D"/>
  <rect x="118" y="168" width="12" height="46" rx="6" fill="#D77B47"/>
  <rect x="136" y="152" width="12" height="62" rx="6" fill="#5F4634"/>
  <rect x="154" y="176" width="12" height="38" rx="6" fill="#E9A97D"/>
  <circle cx="292" cy="126" r="30" fill="#FFF8F2"/>
  <path d="M281 128C286.333 120 297.667 120 303 128" stroke="#8D3D18" stroke-width="4" stroke-linecap="round"/>
  <circle cx="289" cy="120" r="4" fill="#8D3D18"/>
  <circle cx="295" cy="120" r="4" fill="#8D3D18"/>
  <path d="M88 386C184 358.667 293.333 358.667 416 386C499.333 404 576.667 403.333 648 384" stroke="#8D3D18" stroke-opacity="0.24" stroke-width="10" stroke-linecap="round"/>
</svg>
